
<svg width="538" height="30" viewBox="0 0 538 30" fill="none" xmlns="http://www.w3.org/2000/svg">
<path d="M9.3 16.9L6.7 23.8C6.4 24.6 5.8 26 5.8 26.6C5.8 27.8 6.9 28.2 9.4 28.2H10.1V29H0V28.2C2.9 28.2 3.3 27.7 4.8 23.8L12.8 1.89999L12.4 0.899994H16.2L25.4 25.3C26.3 27.6 27.2 28.1 29.4 28.1V28.9H17.3V28.1H18.4C20.9 28.1 21.8 27.8 21.8 26.6C21.8 25.9 21.5 25.2 21.3 24.8L18.4 16.8H9.3V16.9ZM13.8 4.70001L10.1 15H17.7L13.8 4.70001Z" fill="#231F20"/>
<path d="M36.4 6.29999C36.4 3.79999 36.1 2.5 33 2.5H31.5V1.70001C32.7 1.70001 35.8 1.49999 37 1.39999C39.4 1.29999 42.8 1.29999 43.6 1.29999C47.5 1.29999 50.9 1.9 52.4 3C54.2 4.3 55.1 5.79999 55.1 7.89999C55.1 10.4 53 12.7 50.1 13.3V13.4C54.2 14.6 56.7 17.3 56.7 20.7C56.7 24.2 54.3 29.1 47.2 29.1H31.1V28.3H32.1C35.7 28.3 36.4 27.5 36.4 24.7V6.29999ZM40.1 13.1H44.9C49.1 13.1 51.2 11.4 51.2 8C51.2 4.9 49.4 2.10001 43.9 2.10001C42.9 2.10001 41.1 2.20001 40 2.20001V13.1H40.1ZM40.1 23.3C40.1 26.6 41.4 27.8 45.1 27.8C50.9 27.8 52.6 24.2 52.6 20.8C52.6 17.4 50 13.9 44.9 13.9H40.1V23.3Z" fill="#231F20"/>
<path d="M79.5 19.1H78.6999C78.2999 16 77.4999 15.6 75.6999 15.6H68.3V25C68.3 27 68.9999 27.4 70.6999 27.4H77.5C80.6 27.4 81.4999 26.2 82.5999 22.4H83.4L82.6999 29H59.2V28.2H60.4C63.9 28.2 64.5 27.2 64.5 24.6V6C64.5 3.5 63.9 2.5 61 2.5H60V1.70001H81.0999L81.5 7.79999H80.6999C80.0999 4.09999 79 3.29999 77.4 3.29999H68.0999V14H76C77.6 14 78.2999 13.3 78.5999 10.7H79.4V19.1H79.5Z" fill="#231F20"/>
<path d="M95 24.9C95 27.5 96.1 28.2 98.5 28.2H99.5V29H87.1V28.2H87.8C90.4 28.2 91.3 27.5 91.3 24.5V6C91.3 3.3 90.6 2.5 88 2.5H87V1.70001C88.1 1.70001 90.7 1.49999 92.5 1.39999C94.3 1.29999 95.2 1.29999 98 1.29999C106.1 1.29999 109.8 4.60001 109.8 9.10001C109.8 12.4 107.6 15.2 103.9 16.2C105.5 17.5 106.8 18.7 108.9 20.8L112.4 24.3C115 26.9 117.7 28.5 121.1 28.7V29.5C113.4 29.9 111.4 28.2 107.5 24.3L104.6 21.4C102.7 19.5 101.1 18.2 100.1 17.5C99 17.5 98.3 17.6 97.1 17.6C96.1 17.6 95.6 17.6 94.9 17.5V24.9H95ZM95 16.6C96.1 16.7 96.7 16.7 97.7 16.7C102.6 16.7 105.8 14.6 105.8 9.39999C105.8 5.29999 104 2.10001 97.2 2.10001C96.4 2.10001 95.8 2.10001 95 2.20001V16.6Z" fill="#231F20"/>
<path d="M143.5 18.5H142.8C142.7 15.9 141.8 15.2 139.7 15.2H131.6V24.8C131.6 27.3 132.1 28.2 135.4 28.2V29H124.7V28.2C127.4 28 127.9 27.5 127.9 23.9V6.60001C127.9 3.80001 127.7 2.5 124.6 2.5V1.70001H144.3V6.89999H143.6C143.6 4.29999 142.7 3.29999 139.9 3.29999H131.5V13.6H140.2C141.8 13.6 142.6 12.7 142.8 10.8H143.5V18.5Z" fill="#231F20"/>
<path d="M165.6 29.7C157 29.7 149.7 24.2 149.7 15.9C149.7 7.09999 156.4 0.899994 165.8 0.899994C174.1 0.899994 181.2 6.6 181.2 14.5C181.2 23.5 174.1 29.7 165.6 29.7ZM164.6 2.10001C156.9 2.10001 153.8 9.30001 153.8 14.6C153.8 22.8 159.4 28.6 166.5 28.6C173.7 28.6 177.1 22.3 177.1 16C177.1 7.8 171.9 2.10001 164.6 2.10001Z" fill="#231F20"/>
<path d="M193.6 24.9C193.6 27.5 194.7 28.2 197.1 28.2H198.1V29H185.6V28.2H186.3C188.9 28.2 189.8 27.5 189.8 24.5V6C189.8 3.3 189.1 2.5 186.5 2.5H185.5V1.70001C186.6 1.70001 189.2 1.49999 191 1.39999C192.8 1.29999 193.7 1.29999 196.5 1.29999C204.6 1.29999 208.3 4.60001 208.3 9.10001C208.3 12.4 206.1 15.2 202.4 16.2C204 17.5 205.3 18.7 207.4 20.8L210.9 24.3C213.5 26.9 216.2 28.5 219.6 28.7V29.5C211.9 29.9 209.9 28.2 206 24.3L203.1 21.4C201.2 19.5 199.6 18.2 198.6 17.5C197.5 17.5 196.8 17.6 195.6 17.6C194.6 17.6 194.1 17.6 193.4 17.5V24.9H193.6ZM193.6 16.6C194.7 16.7 195.3 16.7 196.3 16.7C201.2 16.7 204.4 14.6 204.4 9.39999C204.4 5.29999 202.6 2.10001 195.8 2.10001C195 2.10001 194.4 2.10001 193.6 2.20001V16.6Z" fill="#231F20"/>
<path d="M233.8 25C233.8 27.4 234.6 28.2 237.3 28.2H238.9V29H225V28.2H226.6C229.3 28.2 230.1 27.4 230.1 25V3.29999H222.4C220.6 3.29999 219.8 4.30001 219.2 8.20001H218.4L219.1 1.10001H219.9C219.9 1.40001 220.1 1.50001 220.4 1.60001C220.7 1.70001 221 1.70001 221.3 1.70001H242.5C243.1 1.70001 243.8 1.6 243.9 1H244.7L245.4 8.10001H244.6C243.9 4.20001 243.1 3.20001 241.4 3.20001H233.7V25H233.8Z" fill="#231F20"/>
<path d="M257.1 15.9V24.3C257.1 27.2 257.7 28.2 260.6 28.2H260.7V29H249.7V28.2H250C252.6 28.2 253.5 27.5 253.5 25V5.60001C253.5 3.30001 252.8 2.7 250.3 2.5V1.70001H260.8V2.5C257.7 2.5 257.1 3.30001 257.1 6.70001V14.4H274.3V5.70001C274.3 3.40001 273.6 2.5 270.8 2.5H270V1.70001H281.3V2.5C278.7 2.6 278 3.40001 278 6.10001V24.4C278 27.5 278.9 28.2 281.5 28.2H281.9V29H269.4V28.2H270.8C273.7 28.2 274.3 27.2 274.3 24.9V16H257.1V15.9Z" fill="#231F20"/>
<path d="M307.3 24.8C307.3 27.3 308 28.2 310.8 28.2H312.3V29H300V28.2H300.6C302.9 28.2 303.5 27.7 303.5 25.6V4.79999C303.5 3.19999 303 2.5 301.4 2.5H299.2V1.70001C300.4 1.70001 302.6 1.49999 304.7 1.39999C306.9 1.29999 309 1.29999 310.2 1.29999C319.4 1.29999 321.5 5.70001 321.5 9.10001C321.5 14.2 317.4 17.5 310.9 17.5C309.6 17.5 308.5 17.4 307.2 17.1V24.8H307.3ZM307.3 16.2C307.9 16.3 308.8 16.6 309.7 16.6C314.5 16.6 317.6 13.3 317.6 8.89999C317.6 5.49999 316.2 2.10001 310.4 2.10001C309.4 2.10001 308.4 2.09999 307.4 2.29999V16.2H307.3Z" fill="#231F20"/>
<path d="M330.7 16.9L328.1 23.8C327.8 24.6 327.2 26 327.2 26.6C327.2 27.8 328.3 28.2 330.8 28.2H331.5V29H321.3V28.2C324.2 28.2 324.6 27.7 326.1 23.8L334.1 1.89999L333.7 0.899994H337.5L346.7 25.3C347.6 27.6 348.5 28.1 350.7 28.1V28.9H338.6V28.1H339.7C342.2 28.1 343.1 27.8 343.1 26.6C343.1 25.9 342.8 25.2 342.6 24.8L339.7 16.8H330.7V16.9ZM335.2 4.70001L331.5 15H339.1L335.2 4.70001Z" fill="#231F20"/>
<path d="M361.2 24.9C361.2 27.5 362.3 28.2 364.7 28.2H365.7V29H353.2V28.2H353.9C356.5 28.2 357.4 27.5 357.4 24.5V6C357.4 3.3 356.7 2.5 354.1 2.5H353.1V1.70001C354.2 1.70001 356.8 1.49999 358.6 1.39999C360.4 1.29999 361.3 1.29999 364.1 1.29999C372.2 1.29999 375.9 4.60001 375.9 9.10001C375.9 12.4 373.7 15.2 370 16.2C371.6 17.5 372.9 18.7 375 20.8L378.5 24.3C381.1 26.9 383.8 28.5 387.2 28.7V29.5C379.5 29.9 377.5 28.2 373.6 24.3L370.7 21.4C368.8 19.5 367.2 18.2 366.2 17.5C365.1 17.5 364.4 17.6 363.2 17.6C362.2 17.6 361.7 17.6 361 17.5V24.9H361.2ZM361.2 16.6C362.3 16.7 362.9 16.7 363.9 16.7C368.8 16.7 372 14.6 372 9.39999C372 5.29999 370.2 2.10001 363.4 2.10001C362.6 2.10001 362 2.10001 361.2 2.20001V16.6Z" fill="#231F20"/>
<path d="M401.6 25C401.6 27.4 402.4 28.2 405.1 28.2H406.7V29H392.8V28.2H394.4C397.1 28.2 397.9 27.4 397.9 25V3.29999H390.2C388.4 3.29999 387.6 4.30001 387 8.20001H386.2L386.9 1.10001H387.7C387.7 1.40001 387.9 1.50001 388.2 1.60001C388.5 1.70001 388.8 1.70001 389.1 1.70001H410.3C410.9 1.70001 411.6 1.6 411.7 1H412.5L413.2 8.10001H412.4C411.7 4.20001 410.9 3.20001 409.2 3.20001H401.5V25H401.6Z" fill="#231F20"/>
<path d="M446 29.3L423.2 5.39999V24.3C423.2 27.5 423.9 28.1 427.6 28.1V28.9H417.4V28.1H417.6C420.3 28.1 421.2 27.2 421.2 25.2V3.5C420.2 2.8 419 2.39999 417.5 2.39999V1.60001H424.4L445.1 23.2V5.70001C445.1 3.00001 444.3 2.49999 440.8 2.39999V1.60001H451.1V2.39999C447.8 2.39999 447.1 3.00001 447.1 4.70001V29.3H446Z" fill="#231F20"/>
<path d="M473.8 19.1H473C472.6 16 471.8 15.6 470 15.6H462.6V25C462.6 27 463.3 27.4 465 27.4H471.8C474.9 27.4 475.8 26.2 476.9 22.4H477.7L477 29H453.6V28.2H454.8C458.3 28.2 458.9 27.2 458.9 24.6V6C458.9 3.5 458.3 2.5 455.4 2.5H454.4V1.70001H475.5L475.9 7.79999H475.1C474.5 4.09999 473.4 3.29999 471.8 3.29999H462.5V14H470.4C472 14 472.7 13.3 473 10.7H473.8V19.1Z" fill="#231F20"/>
<path d="M489.8 24.9C489.8 27.5 490.9 28.2 493.3 28.2H494.3V29H481.8V28.2H482.5C485.1 28.2 486 27.5 486 24.5V6C486 3.3 485.3 2.5 482.7 2.5H481.7V1.70001C482.8 1.70001 485.4 1.49999 487.2 1.39999C489 1.29999 489.9 1.29999 492.7 1.29999C500.8 1.29999 504.5 4.60001 504.5 9.10001C504.5 12.4 502.3 15.2 498.6 16.2C500.2 17.5 501.5 18.7 503.6 20.8L507.1 24.3C509.7 26.9 512.4 28.5 515.8 28.7V29.5C508.1 29.9 506.1 28.2 502.2 24.3L499.3 21.4C497.4 19.5 495.8 18.2 494.8 17.5C493.7 17.5 493 17.6 491.8 17.6C490.8 17.6 490.3 17.6 489.6 17.5V24.9H489.8ZM489.8 16.6C490.9 16.7 491.5 16.7 492.5 16.7C497.4 16.7 500.6 14.6 500.6 9.39999C500.6 5.29999 498.8 2.10001 492 2.10001C491.2 2.10001 490.6 2.10001 489.8 2.20001V16.6Z" fill="#231F20"/>
<path d="M520.6 22.3C521.5 26.2 524.6 28.5 528 28.5C530.9 28.5 534.1 26.8 534.1 23.3C534.1 17 520 15 520 7.29999C520 3.59999 523.3 0.899994 527.8 0.899994C531.5 0.899994 532.2 2 533.8 2C534.2 2 534.3 1.90001 534.6 1.60001H535.3L536 7.20001H535.3C534.1 4.00001 531.3 2 528.2 2C525.3 2 523.3 3.70001 523.3 6.10001C523.3 12.3 537.4 14 537.4 22.1C537.4 26.4 533.6 29.6 528.4 29.6C526 29.6 522.9 28.4 522.3 28.4C521.9 28.4 521.6 28.6 521.4 28.9H520.7L519.8 22.2H520.6V22.3Z" fill="#231F20"/>
</svg>
